<?xml version="1.0" encoding="utf-8"?>
<!-- Generator: Adobe Illustrator 15.1.0, SVG Export Plug-In . SVG Version: 6.00 Build 0)  -->
<!DOCTYPE svg PUBLIC "-//W3C//DTD SVG 1.1//EN" "http://www.w3.org/Graphics/SVG/1.1/DTD/svg11.dtd">
<svg version="1.1" xmlns="http://www.w3.org/2000/svg" xmlns:xlink="http://www.w3.org/1999/xlink" x="0px" y="0px" width="2000px"
	 height="400px" viewBox="0 0 2000 400" enable-background="new 0 0 2000 400" xml:space="preserve">
<g id="Layer_2">
	<rect x="1031.758" y="67.279" fill="#FFFFFF" width="9.661" height="260.082"/>
	<path fill="#FFFFFF" d="M424.976,113.645c-50.949,0.183-82.349,23.333-82.153,82.398c0.225,61.339,38.648,99.174,99.974,98.952
		c23.927-0.121,47.324-7.068,67.44-20.026l0.118,32.452c-20.726,11.759-48.638,16.066-71.008,16.158
		c-71.723,0.246-130.612-41.073-130.911-127.406c-0.282-77.878,49.893-111.172,111.559-111.377
		c31.16-0.115,61.692,6.261,89.943,13.635l0.126,34.717c-16.917-11.943-56.861-19.587-85.095-19.492"/>
	<path fill="#FFFFFF" d="M723.047,315.094c-0.79-3.896-0.41-7.791-10.219-28.852c-7.069-15.878-14.521-30.021-21.584-45.906
		l-99.685,0.354c-6.948,16.251-13.896,30.458-21.254,46.381c-4.015,9.211-7.111,18.79-9.244,28.609l-42.679,0.155
		c0,0,5.044-4.551,16.242-30.559c8.494-19.83,65.286-147.245,73.78-167.068c9.654-21.78,10.029-26.649,10.029-26.649l46.427-0.163
		c0,0,0.41,5.833,9.437,26.249c8.642,19.769,64.775,145.803,73.8,165.9c12.949,28.182,18.165,31.412,18.165,31.412L723.047,315.094z
		 M640.214,124.893c-12.744,29.575-25.014,58.281-38.155,87.878l79.829-0.29c-13.729-29.479-27.944-58.099-41.689-87.58"/>
	<path fill="#FFFFFF" d="M924.365,314.38c-5.477-5.499-11.334-10.998-17.186-16.495l-93.753-82.421l0.261,72.37
		c0.036,10.378,0.857,23.039,2.82,26.931l-38.212,0.143c2.318-5.524,2.289-14.62,2.24-26.944l-0.608-170.386
		c-0.041-8.905-0.724-17.796-2.043-26.6c29.21-0.115,54.552-4.088,82.97-4.203c43.607-0.155,76.377,15.307,76.513,54.899
		c0.149,40.235-30.143,64.358-81.528,70.71c29.297,24.882,58.59,50.416,87.876,75.613c10.35,9.591,21.45,18.341,33.197,26.161
		L924.365,314.38z M850.828,110.832c-12.467,0.038-24.524,1.708-37.759,3.054l0.257,72.155c8.195,0.619,15.589,1.227,23.773,1.227
		c34.259-0.126,63.422-6.829,63.303-40.264c-0.095-27.584-19.209-36.269-49.573-36.163"/>
	<path fill="#FFFFFF" d="M235.642,315.845c0,0-5.514-9.402-18.156-27.238c-37.93-51.874-75.536-104.386-113.14-156.593v155.944
		c0,23.346,1.611,27.888,1.611,27.888H69c1.718-9.298,2.369-18.758,1.942-28.202V124.562c0.274-10.831-0.263-21.666-1.611-32.416
		h47.979c0,0,1.942,5.516,18.484,28.533c13.606,18.801,98.882,137.13,112.485,155.945V123.258
		c0.386-10.401-0.153-20.816-1.61-31.122h36.953c-1.654,10.287-2.308,20.708-1.949,31.122v159.851
		c0,29.499,1.291,29.499,1.949,32.748L235.642,315.845z"/>
</g>
<g id="Layer_3">
	<g>
		<rect x="1115.5" y="81" fill="none" width="860.373" height="279.937"/>
		<path fill="#FFFFFF" d="M1318.697,262.004c-9.302,16.91-22.774,30.066-40.418,39.467c-17.647,9.406-38.624,14.106-62.924,14.106
			h-79.567V91.775h79.567c24.3,0,45.276,4.596,62.924,13.789c17.644,9.193,31.116,22.19,40.418,38.991
			c9.297,16.801,13.947,36.405,13.947,58.804C1332.645,225.549,1327.994,245.1,1318.697,262.004z M1267.502,256.615
			c13.204-12.68,19.812-30.432,19.812-53.256c0-23.032-6.608-40.893-19.812-53.573c-13.21-12.68-31.859-19.02-55.951-19.02h-31.065
			v144.869h31.065C1235.643,275.635,1254.292,269.295,1267.502,256.615z"/>
		<path fill="#FFFFFF" d="M1502.554,270.562h-89.711l-15.85,45.015h-47.233l82.42-221.266h51.037l82.104,221.266h-47.233
			L1502.554,270.562z M1490.508,236.645l-32.968-94.466l-32.968,94.466H1490.508z"/>
		<path fill="#FFFFFF" d="M1706.066,315.577l-52.306-87.175h-19.653v87.175h-44.697V91.775h85.272
			c25.994,0,45.807,6.34,59.438,19.02c13.632,12.68,20.447,29.377,20.447,50.086c0,16.91-4.706,31.066-14.106,42.478
			c-9.406,11.412-22.982,19.02-40.735,22.824l55.793,89.394H1706.066z M1634.107,197.653h36.771
			c25.568,0,38.357-11.303,38.357-33.919c0-10.778-3.121-19.179-9.352-25.202c-6.236-6.023-15.904-9.035-29.006-9.035h-36.771
			V197.653z"/>
		<path fill="#FFFFFF" d="M1936.842,91.775v35.504h-61.815v188.298h-44.697V127.279h-61.497V91.775H1936.842z"/>
	</g>
</g>
</svg>
