<?xml version="1.0" encoding="utf-8"?>
<!-- Generator: Adobe Illustrator 15.1.0, SVG Export Plug-In . SVG Version: 6.00 Build 0)  -->
<!DOCTYPE svg PUBLIC "-//W3C//DTD SVG 1.1//EN" "http://www.w3.org/Graphics/SVG/1.1/DTD/svg11.dtd">
<svg version="1.1" id="Layer_1" xmlns="http://www.w3.org/2000/svg" xmlns:xlink="http://www.w3.org/1999/xlink" x="0px" y="0px"
	 width="2000px" height="400px" viewBox="0 0 2000 400" enable-background="new 0 0 2000 400" xml:space="preserve">
<g id="Layer_1_1_">
	<title>NCAR-contemp-logo-blue.a</title>
	<rect x="985.437" y="52.287" fill="#012169" width="9.604" height="258.51"/>
	<path fill="#012169" d="M382.323,98.373c-50.64,0.184-81.854,23.193-81.658,81.902c0.225,60.964,38.416,98.571,99.371,98.354
		c23.783-0.122,47.038-7.026,67.032-19.904l0.118,32.256c-20.6,11.689-48.343,15.968-70.578,16.058
		c-71.291,0.25-129.823-40.822-130.12-126.633c-0.28-77.409,49.591-110.502,110.883-110.705c30.974-0.115,61.32,6.223,89.401,13.552
		l0.126,34.507c-16.815-11.871-56.518-19.468-84.583-19.375"/>
	<path fill="#012169" d="M678.592,298.603c-0.784-3.872-0.405-7.741-10.154-28.678c-7.03-15.777-14.437-29.84-21.457-45.629
		l-99.079,0.353c-6.906,16.156-13.814,30.273-21.127,46.101c-3.991,9.157-7.068,18.681-9.189,28.438l-42.42,0.156
		c0,0,5.013-4.528,16.145-30.377c8.441-19.708,64.889-146.354,73.332-166.056c9.596-21.649,9.97-26.488,9.97-26.488l46.147-0.163
		c0,0,0.407,5.797,9.379,26.09c8.588,19.652,64.382,144.926,73.354,164.897c12.87,28.011,18.054,31.224,18.054,31.224
		L678.592,298.603z M596.26,109.553c-12.668,29.396-24.862,57.927-37.926,87.344l79.348-0.288
		c-13.646-29.297-27.776-57.744-41.437-87.047"/>
	<path fill="#012169" d="M878.693,297.893c-5.445-5.464-11.265-10.933-17.083-16.396l-93.186-81.917l0.258,71.931
		c0.037,10.312,0.854,22.896,2.804,26.767l-37.98,0.146c2.303-5.497,2.276-14.536,2.227-26.786l-0.605-169.356
		c-0.041-8.85-0.72-17.686-2.032-26.437c29.034-0.116,54.223-4.064,82.469-4.178c43.343-0.153,75.917,15.214,76.051,54.568
		c0.146,39.992-29.96,63.971-81.036,70.281c29.121,24.731,58.238,50.114,87.347,75.158c10.287,9.535,21.32,18.227,32.996,26.003
		L878.693,297.893z M805.6,95.577c-12.392,0.038-24.375,1.698-37.53,3.034l0.255,71.721c8.146,0.614,15.494,1.218,23.627,1.218
		c34.053-0.125,63.04-6.789,62.922-40.02c-0.092-27.418-19.095-36.05-49.275-35.946"/>
	<path fill="#012169" d="M194.133,299.352c0,0-5.481-9.342-18.046-27.074c-37.699-51.56-75.081-103.756-112.454-155.647v154.999
		c0,23.204,1.601,27.721,1.601,27.721H28.5c1.708-9.239,2.354-18.643,1.931-28.031V109.224c0.273-10.765-0.262-21.534-1.602-32.22
		h47.69c0,0,1.931,5.485,18.371,28.361c13.524,18.687,98.285,136.301,111.806,155.001V107.927
		c0.383-10.337-0.153-20.688-1.602-30.933h36.731c-1.645,10.225-2.294,20.582-1.939,30.933v158.886
		c0,29.319,1.285,29.319,1.939,32.55L194.133,299.352z"/>
</g>
<g id="Layer_2">
	<rect x="1077.989" y="73.399" fill="none" width="990.547" height="287.192"/>
	
		<text transform="matrix(1 0 0 1 1077.9893 157.3569)" fill="#012169" font-family="'Poppins-Bold'" font-size="113.4585" letter-spacing="5">PORTING CESM</text>
	
		<text transform="matrix(1 0 0 1 1077.9893 293.5068)" fill="#012169" font-family="'Poppins-Bold'" font-size="113.4585" letter-spacing="5">TO SHAHEEN</text>
</g>
</svg>
