<?xml version="1.0" encoding="utf-8"?>
<!-- Generator: Adobe Illustrator 15.1.0, SVG Export Plug-In . SVG Version: 6.00 Build 0)  -->
<!DOCTYPE svg PUBLIC "-//W3C//DTD SVG 1.1//EN" "http://www.w3.org/Graphics/SVG/1.1/DTD/svg11.dtd">
<svg version="1.1" xmlns="http://www.w3.org/2000/svg" xmlns:xlink="http://www.w3.org/1999/xlink" x="0px" y="0px" width="2000px"
	 height="400px" viewBox="-650 0 2000 400" enable-background="new -650 0 2000 400" xml:space="preserve">
<g id="Layer_1">
	<title>NCAR-contemp-logo-blue.a</title>
	<rect x="319.948" y="67.287" fill="#012169" width="8.615" height="231.897"/>
	<path fill="#012169" d="M-221.075,108.628c-45.427,0.165-73.427,20.805-73.251,73.47c0.201,54.688,34.461,88.424,89.14,88.228
		c21.335-0.109,42.196-6.303,60.131-17.856l0.106,28.936c-18.479,10.486-43.366,14.325-63.312,14.405
		c-63.951,0.224-116.458-36.62-116.724-113.596c-0.251-69.44,44.486-99.126,99.468-99.308c27.785-0.103,55.007,5.583,80.197,12.157
		l0.114,30.955c-15.084-10.649-50.7-17.464-75.875-17.38"/>
	<path fill="#012169" d="M44.693,288.244c-0.703-3.472-0.363-6.944-9.109-25.724c-6.306-14.154-12.95-26.769-19.248-40.932
		l-88.879,0.317c-6.195,14.492-12.392,27.155-18.952,41.354c-3.58,8.213-6.341,16.757-8.244,25.511l-38.053,0.139
		c0,0,4.497-4.062,14.483-27.249c7.572-17.679,58.209-131.287,65.782-148.961c8.608-19.42,8.944-23.761,8.944-23.761l41.396-0.146
		c0,0,0.365,5.2,8.414,23.404c7.704,17.628,57.754,130.005,65.802,147.921c11.544,25.127,16.195,28.009,16.195,28.009
		L44.693,288.244z M-29.163,118.657c-11.364,26.37-22.303,51.964-34.021,78.352l71.179-0.258
		c-12.241-26.281-24.917-51.799-37.171-78.086"/>
	<path fill="#012169" d="M224.194,287.608c-4.885-4.902-10.105-9.807-15.325-14.707l-83.592-73.485l0.232,64.526
		c0.033,9.25,0.766,20.538,2.515,24.011l-34.071,0.13c2.066-4.93,2.042-13.039,1.998-24.028l-0.543-151.921
		c-0.036-7.939-0.646-15.865-1.822-23.715c26.045-0.104,48.64-3.646,73.979-3.748c38.881-0.138,68.101,13.648,68.221,48.95
		c0.131,35.875-26.876,57.385-72.693,63.046c26.123,22.184,52.242,44.954,78.354,67.42c9.228,8.554,19.125,16.351,29.599,23.326
		L224.194,287.608z M158.626,106.12c-11.116,0.034-21.866,1.523-33.666,2.722l0.229,64.337c7.307,0.551,13.899,1.093,21.195,1.093
		c30.547-0.112,56.55-6.09,56.444-35.9c-0.083-24.595-17.129-32.339-44.202-32.245"/>
	<path fill="#012169" d="M-389.891,288.916c0,0-4.917-8.38-16.188-24.286c-33.818-46.252-67.351-93.075-100.877-139.624v139.042
		c0,20.816,1.436,24.867,1.436,24.867h-32.952c1.532-8.288,2.112-16.723,1.732-25.146V118.362
		c0.245-9.657-0.235-19.317-1.437-28.903h42.781c0,0,1.732,4.92,16.479,25.441c12.132,16.763,88.167,122.269,100.296,139.044
		V117.199c0.343-9.273-0.138-18.558-1.437-27.748h32.949c-1.475,9.172-2.058,18.463-1.739,27.748v142.529
		c0,26.301,1.152,26.301,1.739,29.199L-389.891,288.916z"/>
</g>
<g id="Layer_2">
	<rect x="402.973" y="86.226" fill="none" width="888.57" height="257.626"/>
	<text transform="matrix(1 0 0 1 402.9727 161.5405)"><tspan x="0" y="0" fill="#012169" font-family="'Poppins-Bold'" font-size="101.778" letter-spacing="5">PORTING CESM</tspan><tspan x="0" y="122.133" fill="#012169" font-family="'Poppins-Bold'" font-size="101.778" letter-spacing="5">TO SHAHEEN</tspan></text>
</g>
</svg>
